<?xml version="1.0" encoding="UTF-8" standalone="no"?>
<!-- Created with Inkscape (http://www.inkscape.org/) -->

<svg
   xmlns:dc="http://purl.org/dc/elements/1.1/"
   xmlns:cc="http://creativecommons.org/ns#"
   xmlns:rdf="http://www.w3.org/1999/02/22-rdf-syntax-ns#"
   xmlns:svg="http://www.w3.org/2000/svg"
   xmlns="http://www.w3.org/2000/svg"
   xmlns:sodipodi="http://sodipodi.sourceforge.net/DTD/sodipodi-0.dtd"
   xmlns:inkscape="http://www.inkscape.org/namespaces/inkscape"
   id="svg2"
   version="1.1"
   inkscape:version="0.91 r13725"
   width="385.76034"
   height="385.76034"
   xml:space="preserve"
   sodipodi:docname="1x7.svg"><metadata
     id="metadata8"><rdf:RDF><cc:Work
         rdf:about=""><dc:format>image/svg+xml</dc:format><dc:type
           rdf:resource="http://purl.org/dc/dcmitype/StillImage" /><dc:title></dc:title></cc:Work></rdf:RDF></metadata><defs
     id="defs6"><clipPath
       clipPathUnits="userSpaceOnUse"
       id="clipPath92"><path
         d="m 12.105,295.511 283,0 0,-283 -283,0 0,283 z"
         id="path94" /></clipPath><clipPath
       clipPathUnits="userSpaceOnUse"
       id="clipPath100"><path
         d="M 0,0 309,0 309,309 0,309 0,0 z"
         id="path102" /></clipPath><clipPath
       clipPathUnits="userSpaceOnUse"
       id="clipPath104"><path
         d="M 43.867,-13.031 320.965,44.465 263.473,321.559 -13.625,264.066 43.867,-13.031 z"
         id="path106" /></clipPath><clipPath
       clipPathUnits="userSpaceOnUse"
       id="clipPath108"><path
         d="M 0,0 309,0 309,309 0,309 0,0 z"
         id="path110" /></clipPath><clipPath
       clipPathUnits="userSpaceOnUse"
       id="clipPath112"><path
         d="m 12.105,295.902 283,0 0,-283 -283,0 0,283 z"
         id="path114" /></clipPath><clipPath
       clipPathUnits="userSpaceOnUse"
       id="clipPath116"><path
         d="M 0,0 309,0 309,309 0,309 0,0 z"
         id="path118" /></clipPath></defs><sodipodi:namedview
     pagecolor="#ffffff"
     bordercolor="#666666"
     borderopacity="1"
     objecttolerance="10"
     gridtolerance="10"
     guidetolerance="10"
     inkscape:pageopacity="0"
     inkscape:pageshadow="2"
     inkscape:window-width="1920"
     inkscape:window-height="1151"
     id="namedview4"
     showgrid="false"
     inkscape:zoom="2.4471152"
     inkscape:cx="132.18407"
     inkscape:cy="215.13012"
     inkscape:window-x="1680"
     inkscape:window-y="0"
     inkscape:window-maximized="1"
     inkscape:current-layer="g10" /><g
     id="g10"
     inkscape:groupmode="layer"
     inkscape:label="1x7"
     transform="matrix(1.25,0,0,-1.25,0,385.76034)"><g
       id="g4235"><path
         inkscape:connector-curvature="0"
         id="path156"
         style="fill:#ffedba;fill-opacity:1;fill-rule:nonzero;stroke:none"
         d="M 41.94401,116.87159 C 43.860932,107.74099 37.942007,98.812115 28.878653,96.912051 19.815304,95.129626 10.88647,100.91402 8.9695451,110.04462 c -1.8328469,9.0634 4.0188179,17.99219 13.0821689,19.82508 9.063355,1.84964 17.992184,-3.93477 19.892296,-12.99811" /><path
         inkscape:connector-curvature="0"
         id="path158"
         style="fill:#ffedba;fill-opacity:1;fill-rule:nonzero;stroke:none"
         d="m 170.80569,157.72428 c 1.90015,-9.06334 -3.93474,-17.99217 -12.99807,-19.95956 -9.06338,-1.78243 -18.009,4.06925 -19.90913,13.13265 -1.90012,9.06333 4.00203,17.9249 13.06537,19.84184 9.06335,1.90008 18.009,-4.01884 19.84183,-13.01493" /><path
         inkscape:connector-curvature="0"
         id="path160"
         style="fill:#ffedba;fill-opacity:1;fill-rule:nonzero;stroke:none"
         d="m 299.59717,198.6054 c 1.90008,-9.1306 -3.93472,-18.05948 -13.06539,-19.84186 -9.13059,-1.9001 -17.9417,3.81705 -19.84184,12.94764 -1.90008,9.13065 3.88432,18.05947 13.01492,19.95958 9.11377,1.84966 17.99216,-3.93472 19.89231,-13.06536" /><path
         inkscape:connector-curvature="0"
         id="path162"
         style="fill:#ffedba;fill-opacity:1;fill-rule:nonzero;stroke:none"
         d="m 70.886049,248.76663 c 1.900109,-9.0634 -3.934741,-17.99221 -12.998091,-19.84184 -9.197875,-1.90014 -18.009002,3.95152 -19.909108,13.01489 -1.900113,9.06332 3.884291,18.05947 13.065351,19.89228 9.080167,1.84968 18.009,-3.93473 19.841848,-13.06533" /><path
         inkscape:connector-curvature="0"
         id="path164"
         style="fill:#ffedba;fill-opacity:1;fill-rule:nonzero;stroke:none"
         d="m 270.63616,66.726993 c 1.9001,-9.063349 -4.002,-18.059444 -13.0654,-19.95955 -9.06332,-1.849667 -17.99214,4.001998 -19.84182,13.132611 -1.90008,9.063354 3.95158,17.992183 13.0149,19.774586 9.06336,1.900111 17.99217,-3.817033 19.89232,-12.947647" /><path
         inkscape:connector-curvature="0"
         id="path166"
         style="fill:#ffedba;fill-opacity:1;fill-rule:nonzero;stroke:none"
         d="m 199.74939,289.76439 c 1.9169,-9.13057 -3.93475,-18.05944 -12.99813,-19.90911 -9.13056,-1.83281 -17.99219,3.88435 -19.9091,13.01494 -1.90009,9.13061 3.95158,18.05942 13.08216,19.89228 9.06339,1.91696 17.9922,-3.86745 19.82507,-12.99811" /><path
         inkscape:connector-curvature="0"
         id="path168"
         style="fill:#ffedba;fill-opacity:1;fill-rule:nonzero;stroke:none"
         d="M 141.75362,25.718696 C 143.65373,16.588085 137.8189,7.6592514 128.7555,5.8095888 119.69216,3.9767415 110.74651,9.6938836 108.84638,18.824495 c -1.8328,9.063353 4.00202,18.059445 13.06538,19.959554 9.06333,1.782405 18.00898,-4.001999 19.84186,-13.065353" /><path
         transform="matrix(0.8,0,0,-0.8,53.42052,321.81061)"
         d="m -29.831043,260.51083 a 5.1080556,5.1080556 0 0 1 -5.108055,5.10806 5.1080556,5.1080556 0 0 1 -5.108056,-5.10806 5.1080556,5.1080556 0 0 1 5.108056,-5.10805 5.1080556,5.1080556 0 0 1 5.108055,5.10805 z"
         sodipodi:ry="5.1080556"
         sodipodi:rx="5.1080556"
         sodipodi:cy="260.51083"
         sodipodi:cx="-34.939098"
         id="path4221"
         style="fill:#a9a9a9;fill-opacity:1;stroke:none"
         sodipodi:type="arc" /><path
         sodipodi:type="arc"
         style="fill:#a9a9a9;fill-opacity:1;stroke:none"
         id="path4223"
         sodipodi:cx="-34.939098"
         sodipodi:cy="260.51083"
         sodipodi:rx="5.1080556"
         sodipodi:ry="5.1080556"
         d="m -29.831043,260.51083 a 5.1080556,5.1080556 0 0 1 -5.108055,5.10806 5.1080556,5.1080556 0 0 1 -5.108056,-5.10806 5.1080556,5.1080556 0 0 1 5.108056,-5.10805 5.1080556,5.1080556 0 0 1 5.108055,5.10805 z"
         transform="matrix(0.8,0,0,-0.8,82.382718,453.78004)" /><path
         transform="matrix(0.8,0,0,-0.8,182.30486,362.67852)"
         d="m -29.831043,260.51083 a 5.1080556,5.1080556 0 0 1 -5.108055,5.10806 5.1080556,5.1080556 0 0 1 -5.108056,-5.10806 5.1080556,5.1080556 0 0 1 5.108056,-5.10805 5.1080556,5.1080556 0 0 1 5.108055,5.10805 z"
         sodipodi:ry="5.1080556"
         sodipodi:rx="5.1080556"
         sodipodi:cy="260.51083"
         sodipodi:cx="-34.939098"
         id="path4225"
         style="fill:#a9a9a9;fill-opacity:1;stroke:none"
         sodipodi:type="arc" /><path
         sodipodi:type="arc"
         style="fill:#a9a9a9;fill-opacity:1;stroke:none"
         id="path4227"
         sodipodi:cx="-34.939098"
         sodipodi:cy="260.51083"
         sodipodi:rx="5.1080556"
         sodipodi:ry="5.1080556"
         d="m -29.831043,260.51083 a 5.1080556,5.1080556 0 0 1 -5.108055,5.10806 5.1080556,5.1080556 0 0 1 -5.108056,-5.10806 5.1080556,5.1080556 0 0 1 5.108056,-5.10805 5.1080556,5.1080556 0 0 1 5.108055,5.10805 z"
         transform="matrix(0.8,0,0,-0.8,153.26245,230.69587)" /><path
         transform="matrix(0.8,0,0,-0.8,282.13272,271.64112)"
         d="m -29.831043,260.51083 a 5.1080556,5.1080556 0 0 1 -5.108055,5.10806 5.1080556,5.1080556 0 0 1 -5.108056,-5.10806 5.1080556,5.1080556 0 0 1 5.108056,-5.10805 5.1080556,5.1080556 0 0 1 5.108055,5.10805 z"
         sodipodi:ry="5.1080556"
         sodipodi:rx="5.1080556"
         sodipodi:cy="260.51083"
         sodipodi:cx="-34.939098"
         id="path4229"
         style="fill:#a9a9a9;fill-opacity:1;stroke:none"
         sodipodi:type="arc" /><path
         sodipodi:type="arc"
         style="fill:#a9a9a9;fill-opacity:1;stroke:none"
         id="path4231"
         sodipodi:cx="-34.939098"
         sodipodi:cy="260.51083"
         sodipodi:rx="5.1080556"
         sodipodi:ry="5.1080556"
         d="m -29.831043,260.51083 a 5.1080556,5.1080556 0 0 1 -5.108055,5.10806 5.1080556,5.1080556 0 0 1 -5.108056,-5.10806 5.1080556,5.1080556 0 0 1 5.108056,-5.10805 5.1080556,5.1080556 0 0 1 5.108055,5.10805 z"
         transform="matrix(0.8,0,0,-0.8,311.0937,403.61585)" /><path
         transform="matrix(0.8,0,0,-0.8,211.24995,494.73018)"
         d="m -29.831043,260.51083 a 5.1080556,5.1080556 0 0 1 -5.108055,5.10806 5.1080556,5.1080556 0 0 1 -5.108056,-5.10806 5.1080556,5.1080556 0 0 1 5.108056,-5.10805 5.1080556,5.1080556 0 0 1 5.108055,5.10805 z"
         sodipodi:ry="5.1080556"
         sodipodi:rx="5.1080556"
         sodipodi:cy="260.51083"
         sodipodi:cx="-34.939098"
         id="path4233"
         style="fill:#a9a9a9;fill-opacity:1;stroke:none"
         sodipodi:type="arc" /></g><g
       transform="matrix(1,0.322845,0.322845,-1,0,308.60828)"
       id="g14"><path
         inkscape:connector-curvature="0"
         id="path16"
         style="fill:#ffffff;fill-opacity:1;fill-rule:nonzero;stroke:#000000;stroke-width:0.74608201;stroke-linecap:butt;stroke-linejoin:round;stroke-miterlimit:4;stroke-opacity:1;stroke-dasharray:0.373041, 0.373041;stroke-dashoffset:0"
         d="m 157.252,182.225 2.926,-0.001 0,2.926 -2.926,0.001 0,-2.926 z" /></g><g
       transform="matrix(1,0.00314851,0.00314851,-1,0,308.60828)"
       id="g18"><path
         inkscape:connector-curvature="0"
         id="path20"
         style="fill:#ffffff;fill-opacity:1;fill-rule:nonzero;stroke:#000000;stroke-width:0.78399599;stroke-linecap:butt;stroke-linejoin:round;stroke-miterlimit:4;stroke-opacity:1;stroke-dasharray:0.391998, 0.391998;stroke-dashoffset:0.313598"
         d="m 53.813,192.248 3.074,0.001 -0.002,3.075 -3.074,0.002 0.002,-3.078 z" /></g><g
       transform="matrix(1,0.322845,0.322845,-1,0,308.60828)"
       id="g22"><path
         inkscape:connector-curvature="0"
         id="path24"
         style="fill:#ffffff;fill-opacity:1;fill-rule:nonzero;stroke:#000000;stroke-width:0.76130801;stroke-linecap:butt;stroke-linejoin:round;stroke-miterlimit:4;stroke-opacity:1;stroke-dasharray:0.380654, 0.380654;stroke-dashoffset:0.304523"
         d="m 31.834,181.606 2.925,0.003 10e-4,2.926 -2.926,0 0,-2.929 z" /></g><path
       inkscape:connector-curvature="0"
       id="path26"
       style="fill:none;stroke:#000000;stroke-width:0.80000001;stroke-linecap:butt;stroke-linejoin:miter;stroke-miterlimit:4;stroke-opacity:1;stroke-dasharray:none"
       d="M 282.973,195.104 25.363,113.413" /><path
       inkscape:connector-curvature="0"
       id="path28"
       style="fill:none;stroke:#000000;stroke-width:0.80000001;stroke-linecap:butt;stroke-linejoin:miter;stroke-miterlimit:4;stroke-opacity:1;stroke-dasharray:none"
       d="M 210.23,295.206 25.445,236.136" /><path
       inkscape:connector-curvature="0"
       id="path30"
       style="fill:none;stroke:#000000;stroke-width:0.80000001;stroke-linecap:butt;stroke-linejoin:miter;stroke-miterlimit:4;stroke-opacity:1;stroke-dasharray:0.8, 0.8;stroke-dashoffset:0"
       d="m 283.086,195.198 -257.504,0" /><path
       inkscape:connector-curvature="0"
       id="path32"
       style="fill:none;stroke:#000000;stroke-width:0.80000001;stroke-linecap:butt;stroke-linejoin:miter;stroke-miterlimit:4;stroke-opacity:1;stroke-dasharray:none"
       d="M 54.305,245.401 54.41,113.507" /><path
       inkscape:connector-curvature="0"
       id="path34"
       style="fill:none;stroke:#000000;stroke-width:0.80000001;stroke-linecap:butt;stroke-linejoin:miter;stroke-miterlimit:4;stroke-opacity:1;stroke-dasharray:none"
       d="M 54.43,245.511 98.379,113.667" /><path
       inkscape:connector-curvature="0"
       id="path36"
       style="fill:none;stroke:#000000;stroke-width:0.80000001;stroke-linecap:butt;stroke-linejoin:miter;stroke-miterlimit:4;stroke-opacity:1;stroke-dasharray:none"
       d="m 283.277,113.46 -258.07,0" /><g
       transform="matrix(1.2112604,0.24425037,0.4127806,-0.71672656,-50.028894,255.54313)"
       id="g38"><path
         inkscape:connector-curvature="0"
         id="path40"
         style="fill:#ffffff;fill-opacity:1;fill-rule:nonzero;stroke:#000000;stroke-width:0.75723702;stroke-linecap:butt;stroke-linejoin:round;stroke-miterlimit:4;stroke-dasharray:0.757237, 1.514473;stroke-dashoffset:0;stroke-opacity:1"
         d="m 77.978,185.046 c -0.002,12.718 -3.233,24.914 -8.993,33.908" /></g><g
       transform="matrix(-1,0.0886658,-0.0886658,-1,0,308.60828)"
       id="g44"><path
         inkscape:connector-curvature="0"
         id="path46"
         style="fill:#ffffff;fill-opacity:1;fill-rule:nonzero;stroke:#000000;stroke-width:0.63749897;stroke-linecap:butt;stroke-linejoin:round;stroke-miterlimit:4;stroke-opacity:1;stroke-dasharray:0.637499, 1.274998;stroke-dashoffset:0"
         d="m -241.298,92.613 c 0.002,5.356 -1.359,10.489 -3.785,14.274" /></g><path
       inkscape:connector-curvature="0"
       id="path50"
       style="fill:none;stroke:#000000;stroke-width:0.80000001;stroke-linecap:butt;stroke-linejoin:miter;stroke-miterlimit:4;stroke-opacity:1;stroke-dasharray:none"
       d="m 154.398,154.222 28.868,132.132" /><path
       inkscape:connector-curvature="0"
       id="path52"
       style="fill:none;stroke:#000000;stroke-width:0.80000001;stroke-linecap:butt;stroke-linejoin:miter;stroke-miterlimit:4;stroke-opacity:1;stroke-dasharray:none"
       d="m 183.297,286.725 36.73,-111.734" /><path
       inkscape:connector-curvature="0"
       id="path58"
       style="fill:none;stroke:#000000;stroke-width:0.80000001;stroke-linecap:butt;stroke-linejoin:miter;stroke-miterlimit:4;stroke-opacity:1;stroke-dasharray:none"
       d="m 283.207,195.229 0,-81.816" /><g
       id="g132"
       transform="translate(0,-0.391724)" /><g
       id="g170"><g
         id="g172"
         transform="matrix(1,0,0,-1,0,308.60828)"><path
           d="m 308.074,154.305 c 0,84.925 -68.844,153.769 -153.769,153.769 C 69.379,308.074 0.531,239.23 0.531,154.305 0.531,69.379 69.379,0.531 154.305,0.531 c 84.925,0 153.769,68.848 153.769,153.774 z"
           style="fill:none;stroke:#000000;stroke-opacity:1;stroke-width:1.066353;stroke-linecap:butt;stroke-linejoin:miter;stroke-miterlimit:4;stroke-dasharray:none"
           id="path174" /></g></g><text
       xml:space="preserve"
       style="font-size:11.19999981px;font-style:normal;font-weight:normal;line-height:125%;letter-spacing:0px;word-spacing:0px;fill:#000000;fill-opacity:1;stroke:none;font-family:Sans"
       x="48.544483"
       y="-250.36897"
       id="text3088"
       sodipodi:linespacing="125%"
       transform="scale(1,-1)"><tspan
         sodipodi:role="line"
         id="tspan3090"
         x="48.544483"
         y="-250.36897">B</tspan></text>
<text
       transform="scale(1,-1)"
       sodipodi:linespacing="125%"
       id="text3092"
       y="-291.37683"
       x="177.51247"
       style="font-size:11.19999981px;font-style:normal;font-weight:normal;line-height:125%;letter-spacing:0px;word-spacing:0px;fill:#000000;fill-opacity:1;stroke:none;font-family:Sans"
       xml:space="preserve"
       inkscape:transform-center-x="5.721022"><tspan
         y="-291.37683"
         x="177.51247"
         id="tspan3094"
         sodipodi:role="line">E</tspan></text>
<text
       xml:space="preserve"
       style="font-size:11.19999981px;font-style:normal;font-weight:normal;line-height:125%;letter-spacing:0px;word-spacing:0px;fill:#000000;fill-opacity:1;stroke:none;font-family:Sans"
       x="16.739157"
       y="-118.43851"
       id="text3096"
       sodipodi:linespacing="125%"
       transform="scale(1,-1)"><tspan
         sodipodi:role="line"
         id="tspan3098"
         x="16.739157"
         y="-118.43851">A</tspan></text>
<text
       transform="scale(1,-1)"
       sodipodi:linespacing="125%"
       id="text3100"
       y="-200.82123"
       x="278.89084"
       style="font-size:11.19999981px;font-style:normal;font-weight:normal;line-height:125%;letter-spacing:0px;word-spacing:0px;fill:#000000;fill-opacity:1;stroke:none;font-family:Sans"
       xml:space="preserve"><tspan
         y="-200.82123"
         x="278.89084"
         id="tspan3102"
         sodipodi:role="line">F</tspan></text>
<text
       xml:space="preserve"
       style="font-size:11.19999981px;font-style:normal;font-weight:normal;line-height:125%;letter-spacing:0px;word-spacing:0px;fill:#000000;fill-opacity:1;stroke:none;font-family:Sans"
       x="143.18633"
       y="-157.99527"
       id="text3104"
       sodipodi:linespacing="125%"
       transform="scale(1,-1)"><tspan
         sodipodi:role="line"
         id="tspan3106"
         x="143.18633"
         y="-157.99527">O</tspan></text>
<text
       transform="scale(1,-1)"
       sodipodi:linespacing="125%"
       id="text3108"
       y="-102.35049"
       x="94.510475"
       style="font-size:11.19999981px;font-style:normal;font-weight:normal;line-height:125%;letter-spacing:0px;word-spacing:0px;fill:#000000;fill-opacity:1;stroke:none;font-family:Sans"
       xml:space="preserve"><tspan
         y="-102.35049"
         x="94.510475"
         id="tspan3110"
         sodipodi:role="line">D</tspan></text>
<text
       transform="scale(1,-1)"
       sodipodi:linespacing="125%"
       id="text3116"
       y="-102.05817"
       x="50.703785"
       style="font-size:11.19999981px;font-style:normal;font-weight:normal;line-height:125%;letter-spacing:0px;word-spacing:0px;fill:#000000;fill-opacity:1;stroke:none;font-family:Sans"
       xml:space="preserve"><tspan
         y="-102.05817"
         x="50.703785"
         id="tspan3118"
         sodipodi:role="line">C</tspan></text>
<text
       xml:space="preserve"
       style="font-size:9.60000038px;font-style:normal;font-weight:normal;line-height:125%;letter-spacing:0px;word-spacing:0px;fill:#000000;fill-opacity:1;stroke:none;font-family:Sans"
       x="108.20905"
       y="-267.41693"
       id="text3120"
       sodipodi:linespacing="125%"
       transform="scale(1,-1)"><tspan
         sodipodi:role="line"
         id="tspan3122"
         x="108.20905"
         y="-267.41693">u</tspan></text>
<text
       transform="scale(1,-1)"
       sodipodi:linespacing="125%"
       id="text3124"
       y="-218.7065"
       x="158.88095"
       style="font-size:9.60000038px;font-style:normal;font-weight:normal;line-height:125%;letter-spacing:0px;word-spacing:0px;fill:#000000;fill-opacity:1;stroke:none;font-family:Sans"
       xml:space="preserve"><tspan
         y="-218.7065"
         x="158.88095"
         id="tspan3126"
         sodipodi:role="line">u</tspan></text>
<text
       xml:space="preserve"
       style="font-size:9.60000038px;font-style:normal;font-weight:normal;line-height:125%;letter-spacing:0px;word-spacing:0px;fill:#000000;fill-opacity:1;stroke:none;font-family:Sans"
       x="207.59137"
       y="-221.97565"
       id="text3128"
       sodipodi:linespacing="125%"
       transform="scale(1,-1)"><tspan
         sodipodi:role="line"
         id="tspan3130"
         x="207.59137"
         y="-221.97565">d</tspan></text>
<text
       transform="scale(1,-1)"
       sodipodi:linespacing="125%"
       id="text3132"
       y="-129.45854"
       x="159.53477"
       style="font-style:normal;font-weight:normal;font-size:9.60000038px;line-height:125%;font-family:Sans;letter-spacing:0px;word-spacing:0px;fill:#000000;fill-opacity:1;stroke:none"
       xml:space="preserve"><tspan
         y="-129.45854"
         x="159.53477"
         id="tspan3134"
         sodipodi:role="line">a</tspan></text>
<text
       xml:space="preserve"
       style="font-size:9.60000038px;font-style:normal;font-weight:normal;line-height:125%;letter-spacing:0px;word-spacing:0px;fill:#000000;fill-opacity:1;stroke:none;font-family:Sans"
       x="43.806686"
       y="-153.32339"
       id="text3136"
       sodipodi:linespacing="125%"
       transform="scale(1,-1)"><tspan
         sodipodi:role="line"
         id="tspan3138"
         x="43.806686"
         y="-153.32339">b</tspan></text>
<text
       transform="scale(1,-1)"
       sodipodi:linespacing="125%"
       id="text3140"
       y="-121.9395"
       x="97.747749"
       style="font-size:9.60000038px;font-style:normal;font-weight:normal;line-height:125%;letter-spacing:0px;word-spacing:0px;fill:#000000;fill-opacity:1;stroke:none;font-family:Sans"
       xml:space="preserve"><tspan
         y="-121.9395"
         x="97.747749"
         id="tspan3142"
         sodipodi:role="line">$\ell$</tspan></text>
<text
       transform="scale(1,-1)"
       sodipodi:linespacing="125%"
       id="text3144"
       y="-125.8625"
       x="131.7124"
       style="font-style:normal;font-weight:normal;font-size:9.60000038px;line-height:125%;font-family:Sans;letter-spacing:0px;word-spacing:0px;fill:#000000;fill-opacity:1;stroke:none"
       xml:space="preserve"><tspan
         y="-125.8625"
         x="131.7124"
         id="tspan3146"
         sodipodi:role="line">$\theta$</tspan></text>
<text
       xml:space="preserve"
       style="font-size:9.60000038px;font-style:normal;font-weight:normal;line-height:125%;letter-spacing:0px;word-spacing:0px;fill:#000000;fill-opacity:1;stroke:none;font-family:Sans"
       x="286.70496"
       y="-147.112"
       id="text3148"
       sodipodi:linespacing="125%"
       transform="scale(1,-1)"><tspan
         sodipodi:role="line"
         id="tspan3150"
         x="286.70496"
         y="-147.112">b</tspan></text>
<text
       xml:space="preserve"
       style="font-size:9.60000038px;font-style:normal;font-weight:normal;line-height:125%;letter-spacing:0px;word-spacing:0px;fill:#000000;fill-opacity:1;stroke:none;font-family:Sans"
       x="235.70612"
       y="-185.06877"
       id="text3164"
       sodipodi:linespacing="125%"
       transform="scale(1,-1)"><tspan
         sodipodi:role="line"
         id="tspan3166"
         x="235.70612"
         y="-185.06877">$\theta$</tspan></text>
<text
       xml:space="preserve"
       style="font-size:9.60000038px;font-style:normal;font-weight:normal;line-height:125%;letter-spacing:0px;word-spacing:0px;fill:#000000;fill-opacity:1;stroke:none;font-family:Sans"
       x="164.43852"
       y="-166.72694"
       id="text3168"
       sodipodi:linespacing="125%"
       transform="scale(1,-1)"><tspan
         sodipodi:role="line"
         id="tspan3170"
         x="164.43852"
         y="-166.72694">60</tspan></text>
<path
       style="fill:none;fill-rule:evenodd;stroke:#000000;stroke-width:0.8;stroke-linecap:butt;stroke-linejoin:miter;stroke-miterlimit:4;stroke-dasharray:none;stroke-opacity:1"
       d="m 154.62536,154.64959 c -0.31552,-41.22845 -0.31552,-41.22845 -0.31552,-41.22845"
       id="path4217"
       inkscape:connector-curvature="0" /></g></svg>